<?xml version="1.0" encoding="UTF-8" standalone="no"?>
<!-- Created with Inkscape (http://www.inkscape.org/) -->
<svg
   xmlns:dc="http://purl.org/dc/elements/1.1/"
   xmlns:cc="http://web.resource.org/cc/"
   xmlns:rdf="http://www.w3.org/1999/02/22-rdf-syntax-ns#"
   xmlns:svg="http://www.w3.org/2000/svg"
   xmlns="http://www.w3.org/2000/svg"
   xmlns:sodipodi="http://inkscape.sourceforge.net/DTD/sodipodi-0.dtd"
   xmlns:inkscape="http://www.inkscape.org/namespaces/inkscape"
   width="500.00000px"
   height="500.00000px"
   id="svg2035"
   sodipodi:version="0.32"
   inkscape:version="0.42"
   sodipodi:docbase="/home/oliw/Documents/wikipedia/gfx/commons"
   sodipodi:docname="Black_Sun.svg">
  <defs
     id="defs2037" />
  <sodipodi:namedview
     id="base"
     pagecolor="#ffffff"
     bordercolor="#666666"
     borderopacity="1.0"
     inkscape:pageopacity="0.0"
     inkscape:pageshadow="2"
     inkscape:zoom="0.50000000"
     inkscape:cx="245.81776"
     inkscape:cy="96.593778"
     inkscape:document-units="px"
     inkscape:current-layer="layer1"
     showguides="true"
     inkscape:guide-bbox="true"
     inkscape:window-width="1024"
     inkscape:window-height="695"
     inkscape:window-x="0"
     inkscape:window-y="24" />
  <metadata
     id="metadata2040">
    <rdf:RDF>
      <cc:Work
         rdf:about="">
        <dc:format>image/svg+xml</dc:format>
        <dc:type
           rdf:resource="http://purl.org/dc/dcmitype/StillImage" />
        <dc:title>Black Sun</dc:title>
        <dc:date>2006-12-06</dc:date>
        <dc:creator>
          <cc:Agent>
            <dc:title>Oliver Wolters</dc:title>
          </cc:Agent>
        </dc:creator>
        <dc:subject>
          <rdf:Bag>
            <rdf:li>sun</rdf:li>
            <rdf:li>sonne</rdf:li>
            <rdf:li>black</rdf:li>
            <rdf:li>ss</rdf:li>
            <rdf:li>schutzstaffel</rdf:li>
            <rdf:li>nazi</rdf:li>
            <rdf:li>neonazi</rdf:li>
            <rdf:li>fascist</rdf:li>
            <rdf:li>faschismus</rdf:li>
            <rdf:li>occult</rdf:li>
            <rdf:li>okkult</rdf:li>
            <rdf:li>waffen-ss</rdf:li>
            <rdf:li>wewlsburg</rdf:li>
            <rdf:li>ordensburg</rdf:li>
          </rdf:Bag>
        </dc:subject>
        <dc:description>Black Sun Symbol</dc:description>
        <cc:license
           rdf:resource="http://creativecommons.org/licenses/by-sa/2.0/" />
      </cc:Work>
      <cc:License
         rdf:about="http://creativecommons.org/licenses/by-sa/2.0/">
        <cc:permits
           rdf:resource="http://web.resource.org/cc/Reproduction" />
        <cc:permits
           rdf:resource="http://web.resource.org/cc/Distribution" />
        <cc:requires
           rdf:resource="http://web.resource.org/cc/Notice" />
        <cc:requires
           rdf:resource="http://web.resource.org/cc/Attribution" />
        <cc:permits
           rdf:resource="http://web.resource.org/cc/DerivativeWorks" />
        <cc:requires
           rdf:resource="http://web.resource.org/cc/ShareAlike" />
      </cc:License>
    </rdf:RDF>
  </metadata>
  <g
     inkscape:label="Layer 1"
     inkscape:groupmode="layer"
     id="layer1">
    <g
       id="g5005">
      <g
         id="g4957">
        <path
           sodipodi:type="arc"
           style="opacity:1.0000000;fill:#000000;fill-opacity:1.0000000;fill-rule:nonzero;stroke:none;stroke-width:1.7157403;stroke-linecap:round;stroke-linejoin:miter;stroke-miterlimit:0.0000000;stroke-dasharray:none;stroke-dashoffset:0.0000000;stroke-opacity:1.0000000"
           id="path2043"
           sodipodi:cx="237.14285"
           sodipodi:cy="257.14285"
           sodipodi:rx="208.57143"
           sodipodi:ry="208.57143"
           d="M 445.71428 257.14285 A 208.57143 208.57143 0 1 1  28.571426,257.14285 A 208.57143 208.57143 0 1 1  445.71428 257.14285 z"
           transform="matrix(1.198630,0.000000,0.000000,1.198630,-34.24654,-58.21914)" />
        <path
           sodipodi:type="arc"
           style="opacity:1.0000000;fill:#ffffff;fill-opacity:1.0000000;fill-rule:nonzero;stroke:none;stroke-width:1.7157403;stroke-linecap:round;stroke-linejoin:miter;stroke-miterlimit:0.0000000;stroke-dasharray:none;stroke-dashoffset:0.0000000;stroke-opacity:1.0000000"
           id="path2045"
           sodipodi:cx="237.14285"
           sodipodi:cy="257.14285"
           sodipodi:rx="208.57143"
           sodipodi:ry="208.57143"
           d="M 445.71428 257.14285 A 208.57143 208.57143 0 1 1  28.571426,257.14285 A 208.57143 208.57143 0 1 1  445.71428 257.14285 z"
           transform="matrix(1.078767,0.000000,0.000000,1.078767,-5.821884,-27.39722)" />
        <path
           sodipodi:type="arc"
           style="opacity:1.0000000;fill:#000000;fill-opacity:1.0000000;fill-rule:nonzero;stroke:none;stroke-width:1.7157403;stroke-linecap:round;stroke-linejoin:miter;stroke-miterlimit:0.0000000;stroke-dasharray:none;stroke-dashoffset:0.0000000;stroke-opacity:1.0000000"
           id="path2773"
           sodipodi:cx="237.14285"
           sodipodi:cy="257.14285"
           sodipodi:rx="208.57143"
           sodipodi:ry="208.57143"
           d="M 445.71428 257.14285 A 208.57143 208.57143 0 1 1  28.571426,257.14285 A 208.57143 208.57143 0 1 1  445.71428 257.14285 z"
           transform="matrix(0.599315,0.000000,0.000000,0.599315,107.8767,95.89043)" />
        <path
           sodipodi:type="arc"
           style="opacity:1.0000000;fill:#ffffff;fill-opacity:1.0000000;fill-rule:nonzero;stroke:none;stroke-width:1.7157403;stroke-linecap:round;stroke-linejoin:miter;stroke-miterlimit:0.0000000;stroke-dasharray:none;stroke-dashoffset:0.0000000;stroke-opacity:1.0000000"
           id="path2775"
           sodipodi:cx="237.14285"
           sodipodi:cy="257.14285"
           sodipodi:rx="208.57143"
           sodipodi:ry="208.57143"
           d="M 445.71428 257.14285 A 208.57143 208.57143 0 1 1  28.571426,257.14285 A 208.57143 208.57143 0 1 1  445.71428 257.14285 z"
           transform="matrix(0.479452,0.000000,0.000000,0.479452,136.3014,126.7123)" />
      </g>
      <path
         id="rect3503"
         d="M 287.50000 21.718750 L 287.50000 75.000000 L 237.50000 75.000000 L 237.50000 100.00000 L 237.50000 400.00000 L 212.50000 400.00000 L 212.50000 425.00000 L 262.50000 425.00000 L 262.50000 400.00000 L 262.50000 100.00000 L 287.50000 100.00000 L 312.50000 100.00000 L 312.50000 21.718750 L 287.50000 21.718750 z M 187.40625 399.84375 L 187.40625 478.12500 L 212.40625 478.12500 L 212.40625 399.84375 L 187.40625 399.84375 z "
         style="opacity:1.0000000;fill:#000000;fill-opacity:1.0000000;fill-rule:nonzero;stroke:none;stroke-width:1.7157403;stroke-linecap:round;stroke-linejoin:miter;stroke-miterlimit:0.0000000;stroke-dasharray:none;stroke-dashoffset:0.0000000;stroke-opacity:1.0000000" />
      <path
         id="path4976"
         d="M 478.20312,287.54688 L 424.92188,287.54688 L 424.92188,237.54688 L 399.92188,237.54688 L 99.921875,237.54688 L 99.921875,212.54688 L 74.921875,212.54688 L 74.921875,262.54688 L 99.921875,262.54688 L 399.92188,262.54688 L 399.92188,287.54688 L 399.92188,312.54688 L 478.20312,312.54688 L 478.20312,287.54688 z M 100.07812,187.45312 L 21.796875,187.45312 L 21.796875,212.45312 L 100.07812,212.45312 L 100.07812,187.45312 z "
         style="opacity:1.0000000;fill:#000000;fill-opacity:1.0000000;fill-rule:nonzero;stroke:none;stroke-width:1.7157403;stroke-linecap:round;stroke-linejoin:miter;stroke-miterlimit:0.0000000;stroke-dasharray:none;stroke-dashoffset:0.0000000;stroke-opacity:1.0000000" />
      <path
         id="path4978"
         d="M 466.40312,168.33535 L 420.26022,194.97595 L 395.26022,151.67468 L 373.60963,164.17468 L 113.80199,314.17469 L 101.30199,292.52405 L 79.651360,305.02405 L 104.65136,348.32532 L 126.30199,335.82532 L 386.10962,185.82531 L 398.60962,207.47595 L 411.10962,229.12658 L 478.90312,189.98598 L 466.40312,168.33535 z M 88.890420,270.71410 L 21.096880,309.85472 L 33.596880,331.50535 L 101.39042,292.36473 L 88.890420,270.71410 z "
         style="opacity:1.0000000;fill:#000000;fill-opacity:1.0000000;fill-rule:nonzero;stroke:none;stroke-width:1.7157403;stroke-linecap:round;stroke-linejoin:miter;stroke-miterlimit:0.0000000;stroke-dasharray:none;stroke-dashoffset:0.0000000;stroke-opacity:1.0000000" />
      <path
         id="path4999"
         d="M 396.61809,71.143740 L 369.97747,117.28662 L 326.67620,92.286630 L 314.17624,113.93724 L 164.17623,373.74488 L 142.52559,361.24487 L 130.02560,382.89551 L 173.32687,407.89550 L 185.82686,386.24487 L 335.82686,126.43724 L 357.47750,138.93724 L 379.12813,151.43724 L 418.26873,83.643730 L 396.61809,71.143740 z M 120.87188,348.56269 L 81.731265,416.35623 L 103.38190,428.85626 L 142.52251,361.06268 L 120.87188,348.56269 z "
         style="opacity:1.0000000;fill:#000000;fill-opacity:1.0000000;fill-rule:nonzero;stroke:none;stroke-width:1.7157403;stroke-linecap:round;stroke-linejoin:miter;stroke-miterlimit:0.0000000;stroke-dasharray:none;stroke-dashoffset:0.0000000;stroke-opacity:1.0000000" />
      <path
         id="path5001"
         d="M 168.33533,33.596855 L 194.97596,79.739775 L 151.67468,104.73978 L 164.17468,126.39041 L 314.17468,386.19804 L 292.52405,398.69804 L 305.02405,420.34866 L 348.32532,395.34866 L 335.82532,373.69804 L 185.82532,113.89041 L 207.47596,101.39041 L 229.12659,88.890415 L 189.98597,21.096855 L 168.33533,33.596855 z M 270.71410,411.10959 L 309.85472,478.90314 L 331.50536,466.40314 L 292.36473,398.60959 L 270.71410,411.10959 z "
         style="opacity:1.0000000;fill:#000000;fill-opacity:1.0000000;fill-rule:nonzero;stroke:none;stroke-width:1.7157403;stroke-linecap:round;stroke-linejoin:miter;stroke-miterlimit:0.0000000;stroke-dasharray:none;stroke-dashoffset:0.0000000;stroke-opacity:1.0000000" />
      <path
         id="path5003"
         d="M 71.143734,103.38190 L 117.28665,130.02252 L 92.286654,173.32380 L 113.93728,185.82379 L 373.74490,335.82380 L 361.24491,357.47444 L 382.89554,369.97442 L 407.89554,326.67315 L 386.24491,314.17317 L 126.43728,164.17316 L 138.93729,142.52252 L 151.43729,120.87190 L 83.643744,81.731255 L 71.143734,103.38190 z M 348.56271,379.12813 L 416.35626,418.26875 L 428.85627,396.61812 L 361.06271,357.47750 L 348.56271,379.12813 z "
         style="opacity:1.0000000;fill:#000000;fill-opacity:1.0000000;fill-rule:nonzero;stroke:none;stroke-width:1.7157403;stroke-linecap:round;stroke-linejoin:miter;stroke-miterlimit:0.0000000;stroke-dasharray:none;stroke-dashoffset:0.0000000;stroke-opacity:1.0000000" />
    </g>
  </g>
</svg>
